<!-- Generator: Adobe Illustrator 22.0.0, SVG Export Plug-In  -->
<svg version="1.1"
	 xmlns="http://www.w3.org/2000/svg" xmlns:xlink="http://www.w3.org/1999/xlink" xmlns:a="http://ns.adobe.com/AdobeSVGViewerExtensions/3.0/"
	 x="0px" y="0px" width="116.3px" height="33.6px" viewBox="0 0 116.3 33.6" style="enable-background:new 0 0 116.3 33.6;"
	 xml:space="preserve">
<style type="text/css">
	.st0{fill:#EE1631;}
</style>
<defs>
</defs>
<g>
	<path class="st0" d="M116.3,16.4c-1.2,0.8-2.1,1.5-3.1,2.1c-3.3,2.1-6.5,4.2-9.8,6.3c-3.7,2.4-7.4,4.9-11.2,7.3
		c-0.6,0.4-1.3,0.6-1.9,0.6c-3.9,0.1-7.8,0-11.7,0.1c-2.9,0.1-5.8,0.3-8.7,0.4c-2.4,0.1-4.8-0.1-7.2-0.1c-5.5,0.1-10.9,0.3-16.4,0.3
		c-5.5,0.1-10.9,0.1-16.4,0.1c-1.7,0-3.4,0.1-5.1,0c-0.8-0.1-1.7-0.4-2.4-0.9C17.2,29,11.9,25.3,6.7,21.6c-2.1-1.5-4.1-2.9-6.1-4.4
		c-0.7-0.5-0.7-1,0.1-1.5c4.7-3,9.4-6.1,14-9.1C17.4,4.7,20.2,2.8,23,1c0.8-0.5,1.8-0.9,2.8-0.9C30.6,0,35.3,0,40.1,0
		c8.5,0,17,0.2,25.5,0.2c5.9,0,11.8-0.1,17.7-0.2c2.4,0,4.8,0,7.2,0.1c0.9,0.1,2,0.4,2.8,1c5.3,3.5,10.5,7,15.8,10.5
		C111.4,13.1,113.7,14.7,116.3,16.4z M57.8,29.3c0-0.1,0-0.2,0-0.2c2.3,0,4.5,0,6.8,0c1.5,0,3-0.4,3.4-2c0.3-1.3,0.4-2.7,0.2-4
		c-0.4-2.7-2.4-4.3-4.4-5.7c-2.3-1.6-2.3-1.8-0.6-3.9c1-1.2,2.1-2.4,2.6-3.9c1-3.2,0-5.3-3.6-5.2c-1.2,0-2.4,0-3.5,0
		c-3.2,0-6.4,0-9.6,0c-0.3,0-0.6,0.2-1,0.2c0.1,0.3,0.3,0.6,0.4,1c0.3,0.7,0.7,1.4,0.7,2.1c0,6-0.2,12.1-0.3,18.1c0,0.8,0,1.7,0,2.5
		c0,0.7,0.3,1,1.2,1C52.7,29.3,55.2,29.3,57.8,29.3z M76,18.3c-0.2-0.1-0.4-0.3-0.6-0.4c-1.7,2.2-3.5,4.3-4.9,6.6
		c-0.8,1.3-0.3,2.7,0.9,3.4c0.8,0.5,1.7,1,2.6,1c3.7,0.1,7.3,0.4,11,0.1c5.1-0.4,6-5.3,3.6-8.3c-2.2-2.8-4.6-5.3-7-8
		c-1.4-1.6-2.8-3.2-4.1-4.9c-0.6-0.7-0.6-1.6,0.3-2.1c1.3-0.7,4.6-0.2,5.8,0.8c2.3,2,2.2,2,3.5-0.8c0.4-1,0.2-1.4-0.9-1.4
		c-3.5,0-6.9-0.1-10.4,0c-0.7,0-1.5,0.2-2.1,0.6c-1.7,1.1-2,3.4-0.6,5.5c1.2,1.8,2.6,3.4,3.9,5.1c2.3,2.8,4.7,5.5,6.9,8.3
		c1.3,1.6,0.8,2.8-1.1,3.6c-2.3,1.1-4.6,0.7-6.9,0.1c-1.6-0.4-2.6-1.8-2.6-3.5c-0.1-1.8,1.1-3.1,1.9-4.5
		C75.6,19.2,75.8,18.7,76,18.3z M32.1,18.5c-0.2-0.1-0.4-0.2-0.6-0.3c-1.5,1.8-3.1,3.5-4.5,5.3c-1.9,2.7-1,4.8,2.2,5.6
		c0,0,0.1,0,0.1,0c4.1,0.8,8.2,0.6,12.2,0.2c3.6-0.4,5.4-5,3.2-7.8c-2.3-2.9-4.9-5.7-7.3-8.5c-1.4-1.7-2.8-3.3-4.1-5
		C32.7,7,33,6.2,33.9,5.8c1.9-0.8,4.9-0.2,6.3,1.4c1.3,1.4,1.5,1.4,2.5-0.3c0.2-0.3,0.3-0.6,0.4-1c0.3-0.9,0.2-1.5-1-1.5
		c-3.5,0-7,0-10.5,0c-1.7,0-2.8,1-3.2,2.6c-0.4,1.5,0.1,2.9,1,4c1.6,2,3.2,4,4.8,6c2,2.4,4,4.8,5.9,7.3c1.2,1.6,0.7,2.7-1.2,3.4
		c-2.3,0.9-4.7,0.8-7.1,0.1c-1.3-0.4-2.2-1.4-2.4-2.8c-0.2-1.7,0.5-3.1,1.5-4.5C31.5,19.9,31.8,19.2,32.1,18.5z"/>
	<path class="st0" d="M54,23.9c0.2-5.8,0.3-11.1,0.5-16.3c0.1-2.1,0.1-2,2.2-1.9c0.8,0.1,1.6,0,2.4,0c1.8,0.1,2.7,1.5,1.7,3.1
		c-0.9,1.3-1.9,2.6-3.1,3.7c-1.9,1.9-1.9,1.8,0,3.6c1.3,1.2,2.5,2.5,3.7,3.8c1.1,1.3,1.2,3,1,4.6c-0.2,2-1.8,2.5-3.3,2.9
		c-1.2,0.3-2.5,0.3-3.8,0.4c-0.9,0.1-1.3-0.4-1.3-1.2C54,25.5,54,24.5,54,23.9z"/>
</g>
</svg>
